#!OML:ASF C:\Vicon Data\Big\jianyuan-13\jianyuan\Session 1\Capture.male.ASF
:FULLY-SPECIFIED
:DEGREES
209
root -6.784814 17.827109 -1.511494 5.638349 3.168354 3.173086
lowerback -9.268136 -2.172223 -4.225672 
upperback 1.982240 -2.395920 0.014286 
thorax 7.483441 -1.357349 2.015148 
lowerneck -0.721864 0.727144 2.747254 
upperneck -0.825669 0.932224 -4.578659 
head -0.097260 0.462595 -1.888615 
rclavicle 0.000000 0.000000 
rhumerus -50.372186 -13.738118 -78.490059 
rradius 31.874635 
rwrist 25.639153 
rhand -17.164912 -17.915469 
rfingers 0.000000 
rthumb 9.076233 -47.700220 
lclavicle 0.000000 0.000000 
lhumerus -12.386059 7.153055 90.848522 
lradius 42.036833 
lwrist -30.458484 
lhand -21.292378 2.583615 
lfingers 0.000000 
lthumb 5.092015 32.502417 
rfemur -62.659792 -7.475689 16.377251 
rtibia 72.566955 
rfoot -5.021071 0.479698 
rtoes -35.569800 
lfemur -4.082824 -3.595492 -28.583650 
ltibia 19.624901 
lfoot -14.403376 1.074605 
ltoes -29.720042 
210
root -6.785387 17.821858 -1.437432 5.670120 3.245936 3.243752
lowerback -9.422709 -2.231818 -4.336844 
upperback 1.983570 -2.451792 -0.019313 
thorax 7.581708 -1.390001 2.027618 
lowerneck -0.723444 0.749544 2.805780 
upperneck -0.864947 0.960706 -4.546974 
head -0.107939 0.476860 -1.888826 
rclavicle 0.000000 0.000000 
rhumerus -50.453849 -13.948283 -78.368142 
rradius 31.747900 
rwrist 25.975126 
rhand -17.212344 -17.860950 
rfingers 0.000000 
rthumb 9.030405 -47.647682 
lclavicle 0.000000 0.000000 
lhumerus -12.244074 6.591226 90.842320 
lradius 42.583847 
lwrist -29.780700 
lhand -21.191309 2.573784 
lfingers 0.000000 
lthumb 5.189661 32.490255 
rfemur -62.379857 -7.136604 16.124916 
rtibia 70.872761 
rfoot -5.010610 0.700286 
rtoes -35.717734 
lfemur -3.565038 -3.842433 -28.671460 
ltibia 19.137433 
lfoot -14.484695 1.252276 
ltoes -29.810581 
211
root -6.786687 17.832635 -1.366006 5.610705 3.454686 3.206355
lowerback -9.418225 -2.339386 -4.390562 
upperback 1.955079 -2.592954 0.024839 
thorax 7.563744 -1.461660 2.081850 
lowerneck -0.642357 0.768012 2.821284 
upperneck -0.891294 0.985851 -4.574945 
head -0.128638 0.490500 -1.901099 
rclavicle 0.000000 0.000000 
rhumerus -50.592860 -13.992920 -78.232421 
rradius 31.719998 
rwrist 25.980803 
rhand -17.244338 -17.918625 
rfingers 0.000000 
rthumb 8.999574 -47.706669 
lclavicle 0.000000 0.000000 
lhumerus -12.237214 6.109556 90.888836 
lradius 43.170379 
lwrist -29.256888 
lhand -21.046251 2.577399 
lfingers 0.000000 
lthumb 5.329671 32.490375 
rfemur -62.005131 -6.764689 15.774346 
rtibia 69.163938 
rfoot -4.910979 0.798385 
rtoes -33.732693 
lfemur -2.955142 -3.923714 -28.595883 
ltibia 18.602271 
lfoot -14.419702 1.224377 
ltoes -30.188179 
212
root -6.787251 17.834423 -1.292792 5.570511 3.598512 3.210390
lowerback -9.470015 -2.409823 -4.455045 
upperback 1.944462 -2.677587 0.037398 
thorax 7.592495 -1.506333 2.115554 
lowerneck -0.573564 0.779816 2.838715 
upperneck -0.942855 1.001308 -4.565994 
head -0.155637 0.499254 -1.901803 
rclavicle 0.000000 0.000000 
rhumerus -50.651203 -14.112808 -78.068990 
rradius 31.625751 
rwrist 26.053869 
rhand -17.145056 -17.897819 
rfingers 0.000000 
rthumb 9.095403 -47.681699 
lclavicle 0.000000 0.000000 
lhumerus -12.198308 5.700097 90.942261 
lradius 43.690773 
lwrist -28.937862 
lhand -20.899968 2.495755 
lfingers 0.000000 
lthumb 5.470948 32.405094 
rfemur -61.637710 -6.508447 15.585574 
rtibia 67.488825 
rfoot -4.872124 0.936729 
rtoes -33.729116 
lfemur -2.454696 -3.960009 -28.580274 
ltibia 18.278698 
lfoot -14.491019 1.136344 
ltoes -30.395752 
213
root -6.793517 17.810241 -1.217818 5.577790 3.696745 3.286616
lowerback -9.603280 -2.478587 -4.667544 
upperback 1.967849 -2.736683 0.051478 
thorax 7.711127 -1.547166 2.234034 
lowerneck -0.592172 0.811099 2.859783 
upperneck -0.997042 1.041002 -4.565563 
head -0.167624 0.519124 -1.905474 
rclavicle 0.000000 0.000000 
rhumerus -50.675259 -14.327076 -77.880090 
rradius 31.479283 
rwrist 26.642458 
rhand -17.130443 -17.625868 
rfingers 0.000000 
rthumb 9.109444 -47.409168 
lclavicle 0.000000 0.000000 
lhumerus -12.071605 5.269650 90.998816 
lradius 44.232766 
lwrist -28.646033 
lhand -20.730482 2.492984 
lfingers 0.000000 
lthumb 5.634605 32.398032 
rfemur -61.165993 -6.228213 15.448125 
rtibia 65.791763 
rfoot -5.045882 0.991283 
rtoes -34.809583 
lfemur -2.135001 -3.944868 -28.630932 
ltibia 18.223363 
lfoot -14.684508 0.990293 
ltoes -30.491841 
214
root -6.801306 17.785760 -1.139811 5.572091 3.823434 3.280298
lowerback -9.692443 -2.549153 -4.839085 
upperback 1.931306 -2.809557 0.107316 
thorax 7.741590 -1.591634 2.374395 
lowerneck -0.489853 0.812604 2.918137 
upperneck -1.045021 1.042972 -4.621046 
head -0.199217 0.521472 -1.934702 
rclavicle 0.000000 0.000000 
rhumerus -50.860836 -14.356585 -77.780981 
rradius 31.544518 
rwrist 26.543915 
rhand -17.042483 -17.710386 
rfingers 0.000000 
rthumb 9.194339 -47.489867 
lclavicle 0.000000 0.000000 
lhumerus -12.081434 4.849813 91.081929 
lradius 44.791978 
lwrist -28.191283 
lhand -20.692911 2.539727 
lfingers 0.000000 
lthumb 5.670832 32.443840 
rfemur -60.623999 -6.017451 15.440191 
rtibia 64.080824 
rfoot -5.220689 0.980632 
rtoes -35.804671 
lfemur -1.876428 -3.885133 -28.573586 
ltibia 18.327484 
lfoot -14.926790 0.751065 
ltoes -30.831644 
